<svg xmlns="http://www.w3.org/2000/svg" width="277.563" height="226.444" viewBox="0 0 277.563 226.444">
  <g id="BoxCat" transform="translate(0.213 -19.127)">
    <path id="BackPanel" d="M1701.033,636.411l53.308-37.324,221.1-.183-2.669,39.241L1701.9,768.619Z" transform="translate(-1699.741 -526.306)" fill="#9f886e" stroke="#594949" stroke-width="3"/>
    <g id="CatFaceLogo" transform="translate(36.422 21)">
      <g id="Body" transform="translate(0 56.933)" fill="#a79a9a" stroke="#594949" stroke-width="3">
        <circle cx="81.932" cy="81.932" r="81.932" stroke="none"/>
        <circle cx="81.932" cy="81.932" r="80.432" fill="none"/>
      </g>
      <g id="Head" transform="translate(62.614 0)">
        <g id="Head-2" data-name="Head" transform="translate(6.333 13.161)" fill="#a79a9a" stroke="#594949" stroke-width="3">
          <circle cx="70.433" cy="70.433" r="70.433" stroke="none"/>
          <circle cx="70.433" cy="70.433" r="68.933" fill="none"/>
        </g>
        <g id="LeftEar" transform="translate(0 0)">
          <path id="Path_7" data-name="Path 7" d="M35.4,40.919s-3.95-53-12.465-38.364A54.069,54.069,0,0,1,0,23.341" transform="matrix(0.951, 0.309, -0.309, 0.951, 113.48, 3.02)" fill="#a79a9a" stroke="#594949" stroke-linecap="round" stroke-width="3"/>
          <path id="Path_26" data-name="Path 26" d="M0,47.055S4.542-13.891,14.334,2.939s26.378,23.9,26.378,23.9" transform="translate(0 11.903) rotate(-17)" fill="#a79a9a" stroke="#594949" stroke-linecap="round" stroke-width="3"/>
        </g>
      </g>
      <g id="Face" transform="translate(100.269 47.11)">
        <g id="Right_Eye" data-name="Right Eye" transform="translate(0 0)">
          <g id="Path_3" data-name="Path 3" transform="matrix(0.995, 0.105, -0.105, 0.995, 1.878, 4.071)" fill="#fff">
            <path d="M 11.67436981201172 9.703141212463379 C 8.799789428710938 9.703141212463379 6.12054967880249 9.11323070526123 4.130189895629883 8.042080879211426 C 2.458669900894165 7.142520904541016 1.499999761581421 6.00468111038208 1.499999761581421 4.920341014862061 C 1.499999761581421 3.36699104309082 1.889879822731018 2.797091007232666 2.475279808044434 2.419281005859375 C 3.433759927749634 1.800701141357422 5.293079853057861 1.500001072883606 8.159480094909668 1.500001072883606 C 11.58008003234863 1.500001072883606 15.17881011962891 1.91438102722168 17.78606986999512 2.608481168746948 C 19.19309043884277 2.983051061630249 20.31839942932129 3.439761161804199 21.04034996032715 3.9292311668396 C 21.34226036071777 4.133921146392822 21.84873962402344 4.534861087799072 21.84873962402344 4.920341014862061 C 21.84873962402344 6.00468111038208 20.89006996154785 7.142510890960693 19.21854019165039 8.042080879211426 C 17.22818946838379 9.11323070526123 14.5489501953125 9.703141212463379 11.67436981201172 9.703141212463379 Z" stroke="none"/>
            <path d="M 8.159480094909668 3.000000953674316 C 4.837678909301758 3.000000953674316 3.681940078735352 3.425791263580322 3.288669586181641 3.679601192474365 C 3.174379348754883 3.753361225128174 3.15972900390625 3.788341045379639 3.135469436645508 3.846291065216064 C 3.084869384765625 3.9671311378479 3 4.267341136932373 3 4.920341014862061 C 3 5.245971202850342 3.490299224853516 5.99428129196167 4.841049194335938 6.721210956573486 C 6.591020584106445 7.66300106048584 9.081669807434082 8.203141212463379 11.67436981201172 8.203141212463379 C 14.26706981658936 8.203141212463379 16.75772094726563 7.66300106048584 18.5076904296875 6.721210956573486 C 19.54276466369629 6.164167404174805 20.07257652282715 5.594564914703369 20.26367950439453 5.212228775024414 C 19.79108428955078 4.874273777008057 18.59216690063477 4.278095245361328 16.21735954284668 3.777720928192139 C 13.87160015106201 3.28347110748291 10.93461990356445 3.000000953674316 8.159480094909668 3.000000953674316 M 8.159480094909668 9.5367431640625e-07 C 14.6070499420166 9.5367431640625e-07 23.34873962402344 1.450450897216797 23.34873962402344 4.920341014862061 C 23.34873962402344 8.390231132507324 18.12194061279297 11.20314121246338 11.67436981201172 11.20314121246338 C 5.226789474487305 11.20314121246338 0 8.390231132507324 0 4.920341014862061 C 0 1.450450897216797 1.71190071105957 9.5367431640625e-07 8.159480094909668 9.5367431640625e-07 Z" stroke="none" fill="#594949"/>
          </g>
          <path id="Path_27" data-name="Path 27" d="M8.752,1,34.8,5.045" transform="translate(-8.752 -1.001)" fill="none" stroke="#594949" stroke-linecap="round" stroke-width="3"/>
        </g>
        <g id="Right_Eye-2" data-name="Right Eye" transform="translate(52.886 1.251)">
          <g id="Path_3-2" data-name="Path 3" transform="matrix(-0.995, 0.105, -0.105, -0.995, 22.798, 15.338)" fill="#fff">
            <path d="M 6.814952373504639 9.733749389648438 C 6.814199447631836 9.733749389648438 6.813463687896729 9.733749389648438 6.812711238861084 9.733749389648438 C 4.297511100769043 9.733689308166504 2.753131151199341 9.408249855041504 2.09131121635437 8.738859176635742 C 1.8073410987854 8.451639175415039 1.48357105255127 7.92920970916748 1.500641107559204 6.426239490509033 C 1.513421058654785 5.301839351654053 2.381951093673706 4.130659580230713 3.883541107177734 3.213009595870972 C 5.637381076812744 2.141209602355957 7.988981246948242 1.533309578895569 10.50516128540039 1.501309633255005 C 10.57389068603516 1.500429630279541 10.64177131652832 1.499999523162842 10.7101411819458 1.499999523162842 C 13.88397121429443 1.499999523162842 16.80759048461914 2.462889671325684 18.34009170532227 4.012899398803711 C 19.00454139709473 4.684939384460449 19.33723068237305 5.396309375762939 19.32893180847168 6.127229690551758 C 19.32185173034668 6.749829769134521 18.37123107910156 7.707209587097168 15.72441101074219 8.527059555053711 C 13.41440105438232 9.242589950561523 10.22937107086182 9.692729949951172 7.204441070556641 9.731209754943848 C 7.072011470794678 9.73289966583252 6.942697525024414 9.733749389648438 6.814952373504639 9.733749389648438 Z" stroke="none"/>
            <path d="M 6.814920902252197 11.23374938964844 L 6.814920902252197 8.233749389648438 C 6.93639087677002 8.233749389648438 7.059360980987549 8.232939720153809 7.185360908508301 8.231329917907715 C 9.634700775146484 8.200179100036621 12.22383117675781 7.886289596557617 14.28889083862305 7.37015962600708 C 16.46656799316406 6.825891971588135 17.47321319580078 6.206985950469971 17.80454444885254 5.903226375579834 C 17.72770118713379 5.583573818206787 17.48420715332031 5.280710697174072 17.2734203338623 5.067519664764404 C 16.33044052124023 4.113759517669678 14.04572105407715 2.999999523162842 10.7101411819458 2.999999523162842 C 10.64820098876953 2.999999523162842 10.5866813659668 3.000389575958252 10.52424144744873 3.001189470291138 C 8.306200981140137 3.029399633407593 6.170851230621338 3.573119640350342 4.66572093963623 4.492929458618164 C 3.645191192626953 5.116599559783936 3.007131099700928 5.863929748535156 3.000551223754883 6.443269729614258 C 2.98927116394043 7.435639381408691 3.155561208724976 7.681289672851563 3.157081127166748 7.683289527893066 C 3.161861181259155 7.688799381256104 3.721940994262695 8.233669281005859 6.812891006469727 8.233749389648438 L 6.814920902252197 11.23374938964844 M 6.812670230865479 11.23375415802002 C 1.400359749794006 11.23360633850098 -0.03767251595854759 9.790760040283203 0.0007411071565002203 6.409199714660645 C 0.04012110829353333 2.9434494972229 4.734560966491699 0.0745895728468895 10.48608112335205 0.001429574913345277 C 10.56120491027832 0.0004739938303828239 10.63541221618652 3.16864020533103e-06 10.71014499664307 3.16864020533103e-06 C 16.3570442199707 3.16864020533103e-06 20.86769676208496 2.723777770996094 20.82883071899414 6.144269466400146 C 20.78946113586426 9.610019683837891 12.97504138946533 11.15792942047119 7.22352123260498 11.23108959197998 C 7.083805561065674 11.23286724090576 6.947419166564941 11.23375701904297 6.812670230865479 11.23375415802002 Z" stroke="none" fill="#594949"/>
          </g>
          <path id="Path_27-2" data-name="Path 27" d="M33.956,1,8.752,5.045" transform="translate(-8.752 -1.001)" fill="none" stroke="#594949" stroke-linecap="round" stroke-width="3"/>
        </g>
      </g>
    </g>
    <path id="frontPanel" d="M1700.165,635.568l54.556-36.522V730.713l-55.2,37.419Z" transform="translate(-1478.869 -525.4)" fill="#ae9980" stroke="#594949" stroke-linecap="round" stroke-width="3"/>
    <g id="SidePanel" transform="translate(0 109.261)" fill="#ae9980" stroke="#594949" stroke-width="3">
      <rect width="221.251" height="135.017" stroke="none"/>
      <rect x="1.5" y="1.5" width="218.251" height="132.017" fill="none"/>
    </g>
    <g id="Mouth_Nose" data-name="Mouth+Nose" transform="translate(154.988 86.942)">
      <path id="Path_30" data-name="Path 30" d="M3.777.068,2.9.715,1.241,0,0,1.052" transform="translate(31.83 31.277) rotate(180)" fill="none" stroke="#594949" stroke-width="3"/>
      <path id="Path_29" data-name="Path 29" d="M1468.563-3093.883l.944-.878,1.786.969,1.336-1.427" transform="translate(-1460.616 3125.273)" fill="none" stroke="#594949" stroke-width="3"/>
      <path id="tooth" d="M.592,26.191-1.175,19.03l3.162.232Z" transform="translate(9.556 4.774)" fill="#fff" stroke="#fff" stroke-width="3"/>
      <path id="tooth-2" data-name="tooth" d="M.592,26.191-1.175,19.03l3.162.232Z" transform="translate(29.57 4.774)" fill="#fff" stroke="#fff" stroke-width="3"/>
      <path id="Path_10" data-name="Path 10" d="M569.16,106.734v19.422" transform="translate(-549.339 -104.435)" fill="none" stroke="#594949" stroke-width="3"/>
      <path id="Path_11" data-name="Path 11" d="M579.757,109.783s-5.466,4.511-9.752,4.511-9.829-4.511-9.829-4.511" transform="translate(-560.175 -88.039)" fill="#a79a9a" stroke="#594949" stroke-linecap="round" stroke-width="3"/>
      <path id="Path_28" data-name="Path 28" d="M582.528,109.538s-4.878,5.084-9.165,5.084-9.863-5.084-9.863-5.084" transform="translate(-543.08 -88.101)" fill="#a79a9a" stroke="#594949" stroke-linecap="round" stroke-width="3"/>
      <path id="Path_9" data-name="Path 9" d="M0,7.594H10.222L4.945,0Z" transform="translate(24.574 7.594) rotate(180)" fill="#594949" stroke="#594949" stroke-linecap="round" stroke-linejoin="round" stroke-width="3"/>
    </g>
  </g>
</svg>
