<svg xmlns="http://www.w3.org/2000/svg" width="331.214" height="231.494" viewBox="0 0 331.214 231.494">
  <g id="CleaningCat" transform="translate(-395.793 -104.04)">
    <g id="Body" transform="translate(468.532 147.752)">
      <g id="FL_Foot" transform="matrix(0.259, 0.966, -0.966, 0.259, 106.19, 115.178)" fill="#a79a9a">
        <path d="M 26.0518684387207 86.21914672851563 C 24.05189514160156 86.21914672851563 22.45165634155273 85.39914703369141 21.15972328186035 83.71231079101563 C 19.91876220703125 82.09203338623047 18.98788261413574 79.70671081542969 18.39293670654297 76.62262725830078 C 17.84453582763672 73.77983093261719 17.59394836425781 70.40969848632813 17.64814949035645 66.60581970214844 C 17.74074935913086 60.10661697387695 18.77829551696777 52.43805694580078 20.35589599609375 46.59273529052734 L 20.86565589904785 44.70396423339844 L 18.90930938720703 44.70188140869141 C 14.78109550476074 44.69748306274414 10.96532249450684 42.62861633300781 7.87448263168335 38.71894836425781 C 5.06766939163208 35.16852188110352 3.078882694244385 30.38488388061523 2.123122692108154 24.88517570495605 C 1.117674350738525 19.09947776794434 1.334805369377136 12.83548736572266 2.750636100769043 6.759949207305908 C 4.342166423797607 3.220927715301514 6.997658729553223 1.500002980232239 10.8646297454834 1.500002980232239 C 14.40161609649658 1.500002980232239 18.87556266784668 2.988736391067505 23.80277633666992 5.805269718170166 C 28.37380218505859 8.418190002441406 33.11072158813477 12.02270984649658 37.50145721435547 16.22914886474609 C 41.61103057861328 20.16625595092773 43.89553451538086 24.53180313110352 44.69089508056641 29.96780395507813 C 45.4161491394043 34.92453765869141 44.83324432373047 40.20698928833008 44.21611022949219 45.79960250854492 C 43.77238845825195 49.8207893371582 43.31354904174805 53.9788818359375 43.31354904174805 58.27496337890625 C 43.31354904174805 66.55670928955078 42.08212280273438 73.11763000488281 39.65346908569336 77.77546691894531 C 38.39582824707031 80.18745422363281 36.79970932006836 82.09901428222656 34.90944290161133 83.45704650878906 C 32.9350700378418 84.87551116943359 30.56769561767578 85.7392578125 27.87308311462402 86.02430725097656 L 27.80658912658691 86.03134918212891 L 27.74098968505859 86.04427337646484 C 27.15186882019043 86.16030883789063 26.58357620239258 86.21914672851563 26.0518684387207 86.21914672851563 Z" stroke="none"/>
        <path d="M 10.86462783813477 2.999992370605469 C 7.654861450195313 2.999992370605469 5.523696899414063 4.350616455078125 4.177864074707031 7.245697021484375 C 2.837509155273438 13.08135223388672 2.637657165527344 19.08518981933594 3.600967407226563 24.62834930419922 C 4.059379577636719 27.26620864868164 4.771381378173828 29.75022506713867 5.717197418212891 32.01140975952148 C 6.636688232421875 34.20967102050781 7.758411407470703 36.15342712402344 9.051181793212891 37.78870391845703 C 11.00130462646484 40.25545501708984 14.29487228393555 43.19697952270508 18.91090393066406 43.20188522338867 L 22.82358169555664 43.2060546875 L 21.80407333374023 46.98357772827148 C 20.25670433044434 52.71694946289063 19.23895072937012 60.24393463134766 19.14799690246582 66.62718200683594 C 19.03982734680176 74.21882629394531 20.17719650268555 79.96251678466797 22.3505802154541 82.80023956298828 C 23.36698150634766 84.12733459472656 24.50852012634277 84.71914672851563 26.05188941955566 84.71914672851563 C 26.48648834228516 84.71914672851563 26.9572582244873 84.66982269287109 27.45112037658691 84.57254791259766 L 27.58231925964355 84.54669952392578 L 27.71528816223145 84.53263854980469 C 32.50345611572266 84.02611541748047 35.97339630126953 81.58898162841797 38.32341003417969 77.08196258544922 C 40.63930511474609 72.64039611816406 41.81354904174805 66.31281280517578 41.81354904174805 58.27496337890625 C 41.81354904174805 53.89637756347656 42.27698135375977 49.69659423828125 42.72516632080078 45.63508605957031 C 43.33144378662109 40.14082717895508 43.90409088134766 34.95128631591797 43.20670318603516 30.18496322631836 C 42.46221160888672 25.09668731689453 40.31959533691406 21.00630187988281 36.46376800537109 17.31230163574219 C 32.16016387939453 13.18931579589844 27.52464294433594 9.660560607910156 23.05836486816406 7.107521057128906 C 18.35745811462402 4.42034912109375 14.14093399047852 2.999992370605469 10.86462783813477 2.999992370605469 M 10.86462783813477 0 C 18.99737167358398 0 29.99384689331055 6.959365844726563 38.53913497924805 15.14601135253906 C 51.47151947021484 27.53561019897461 44.81354904174805 42.12559509277344 44.81354904174805 58.27496337890625 C 44.81354904174805 74.42434692382813 40.19436645507813 86.22927093505859 28.0308895111084 87.5159912109375 C 27.33518981933594 87.65303039550781 26.67577171325684 87.71914672851563 26.0518856048584 87.71914672851563 C 13.20834350585938 87.71914672851563 15.25909423828125 59.72080993652344 18.9077033996582 46.20188522338867 C 5.514488220214844 46.18762588500977 -3.518234252929688 26.78639602661133 1.322395324707031 6.2803955078125 C 3.268161773681641 1.835113525390625 6.6893310546875 0 10.86462783813477 0 Z" stroke="none" fill="#594949"/>
      </g>
      <g id="BR_Foot" transform="translate(30.332 93.639) rotate(21)" fill="#a79a9a">
        <path d="M 10.84853935241699 83.13873291015625 C 7.054179191589355 83.13873291015625 4.500005722045898 82.07552337646484 3.256952285766602 79.97861480712891 C 1.635792374610901 77.24391174316406 1.144845724105835 74.98448181152344 1.756045699119568 73.07124328613281 C 2.292565584182739 71.39174652099609 3.600112438201904 70.10306549072266 4.864619255065918 68.8568115234375 C 6.521952152252197 67.223388671875 8.235725402832031 65.53434753417969 7.666579246520996 63.12776184082031 C 5.375712394714355 53.44198989868164 4.350298881530762 42.98660278320313 4.350298881530762 36.92144012451172 L 4.350298881530762 36.79305648803711 L 4.328485488891602 36.66653442382813 C 4.318952560424805 36.6110954284668 3.369779109954834 31.00926780700684 3.428045749664307 24.3189754486084 C 3.461899042129517 20.430908203125 3.824245691299438 16.94356155395508 4.505019187927246 13.95378875732422 C 5.331539154052734 10.32388210296631 6.625565528869629 7.445161819458008 8.351139068603516 5.397588729858398 C 9.396792411804199 4.156801700592041 10.6232328414917 3.202015161514282 11.99639225006104 2.559735298156738 C 13.49975204467773 1.856548547744751 15.23720550537109 1.500001907348633 17.16045951843262 1.500001907348633 C 17.48807144165039 1.500001907348633 17.81237983703613 1.509775280952454 18.15195274353027 1.529868602752686 C 20.4541130065918 1.66608190536499 22.55431175231934 2.623228549957275 24.57256507873535 4.45597505569458 C 26.4821662902832 6.190055370330811 28.28132629394531 8.710788726806641 29.92007255554199 11.94816207885742 C 32.756591796875 17.55170822143555 35.13681793212891 25.31049537658691 36.99464416503906 35.00898742675781 C 39.98749160766602 50.63259506225586 40.63301849365234 66.30353546142578 40.70430755615234 68.28202056884766 C 40.48734283447266 69.02352142333984 39.76065063476563 70.44458770751953 37.38280487060547 72.51319885253906 C 35.40324401855469 74.23533630371094 32.75276565551758 75.98995208740234 29.71789932250977 77.58733367919922 C 26.61760520935059 79.21916198730469 23.28751182556152 80.59378814697266 20.087646484375 81.56261444091797 C 16.68205833435059 82.59371948242188 13.48721885681152 83.13873291015625 10.84853935241699 83.13873291015625 Z" stroke="none"/>
        <path d="M 17.16044425964355 2.999992370605469 C 13.91324424743652 2.999992370605469 11.40745735168457 4.099739074707031 9.499929428100586 6.362083435058594 C 6.587272644042969 9.816482543945313 5.006473541259766 16.01362609863281 4.928428649902344 24.28352355957031 C 4.866485595703125 30.8466796875 5.797500610351563 36.35819244384766 5.806657791137695 36.41162109375 L 5.850301742553711 36.66466522216797 L 5.850301742553711 36.92143630981445 C 5.850301742553711 42.89950942993164 6.863271713256836 53.2143669128418 9.126316070556641 62.78253936767578 C 9.889657974243164 66.01033782958984 7.59385871887207 68.27301025390625 5.917530059814453 69.92515563964844 C 4.782527923583984 71.04377746582031 3.60888671875 72.20047760009766 3.184902191162109 73.52769470214844 C 2.981372833251953 74.164794921875 2.946617126464844 74.84719848632813 3.078643798828125 75.61392211914063 C 3.2593994140625 76.66359710693359 3.753513336181641 77.87474060058594 4.547256469726563 79.21370697021484 C 5.003471374511719 79.9832763671875 5.699800491333008 80.55368041992188 6.676029205322266 80.95749664306641 C 7.768844604492188 81.40953826904297 9.172672271728516 81.63873291015625 10.84852981567383 81.63873291015625 C 13.34191513061523 81.63873291015625 16.38644409179688 81.11598205566406 19.65297317504883 80.12698364257813 C 22.76311492919922 79.18532562255859 26.00191497802734 77.84813690185547 29.01924514770508 76.25997924804688 C 31.95315742492676 74.71572113037109 34.50480270385742 73.02877807617188 36.39828491210938 71.38150787353516 C 38.06222915649414 69.93395233154297 38.90988159179688 68.76857757568359 39.19504547119141 68.06266784667969 C 39.08490371704102 65.23989105224609 38.38597106933594 50.24496459960938 35.52143096923828 35.29119491577148 C 33.6899299621582 25.73012542724609 31.35508728027344 18.10432434082031 28.58175849914551 12.6256103515625 C 27.02595901489258 9.552093505859375 25.33778762817383 7.177047729492188 23.56415939331055 5.566436767578125 C 21.80945777893066 3.973007202148438 20.0101146697998 3.142440795898438 18.0633430480957 3.027236938476563 C 17.75347328186035 3.0089111328125 17.4581298828125 2.999992370605469 17.16044425964355 2.999992370605469 M 17.16044807434082 0 C 17.51343154907227 0 17.87162971496582 0.010650634765625 18.24054336547852 0.03247833251953125 C 40.21977233886719 1.333023071289063 42.21075820922852 68.44566345214844 42.21075820922852 68.44566345214844 C 40.78616714477539 74.77232360839844 22.6381950378418 84.63873291015625 10.84852981567383 84.63873291015625 C 6.864728927612305 84.63873291015625 3.608402252197266 83.51302337646484 1.966629028320313 80.74352264404297 C -4.5338134765625 69.77796936035156 7.251386642456055 67.88980865478516 6.206844329833984 63.47296524047852 C 4.014644622802734 54.20433807373047 2.850299835205078 43.68432235717773 2.850299835205078 36.92143630981445 C 2.850299835205078 36.92143630981445 -3.516674041748047 0 17.16044807434082 0 Z" stroke="none" fill="#594949"/>
      </g>
      <path id="Tail" d="M0,60.988c4.543-1.4,14.1,7.216,19.078,5.476,44-15.356,58.375-42.831,57.738-49.77C77.725-9.262,17.378-.428,44.248,12.84S0,60.988,0,60.988Z" transform="matrix(0.914, 0.407, -0.407, 0.914, 186.294, 85.779)" fill="#a79a9a" stroke="#594949" stroke-linecap="round" stroke-linejoin="round" stroke-width="3"/>
      <g id="Body-2" data-name="Body" transform="translate(23.453 0)" fill="#a79a9a" stroke="#594949" stroke-width="3">
        <circle cx="88.952" cy="88.952" r="88.952" stroke="none"/>
        <circle cx="88.952" cy="88.952" r="87.452" fill="none"/>
      </g>
      <path id="Path_33" data-name="Path 33" d="M1459.954-2108.213c-.706.629-19.682,20.547-13.646,38.161,0,0-44.92,7.1-52.323,12.816s-8.478,12.137,4.813,18.994c27.561,14.219,86.833-4.073,90.168-9.164s26.025-31.4,30.653-49.911" transform="translate(-1325.388 2218.199)" fill="#a79a9a" stroke="#594949" stroke-width="3"/>
    </g>
    <g id="Head" transform="translate(368.123 181.493) rotate(-49)">
      <g id="Head-2" data-name="Head" transform="translate(0.131 36.55)" fill="#a79a9a" stroke="#594949" stroke-width="3">
        <ellipse cx="67.134" cy="67.134" rx="67.134" ry="67.134" stroke="none"/>
        <ellipse cx="67.134" cy="67.134" rx="65.634" ry="65.634" fill="none"/>
      </g>
      <g id="L_Ear" transform="matrix(0.883, 0.469, -0.469, 0.883, 57.979, 0)">
        <path id="Path_6" data-name="Path 6" d="M.923,48.477S-3.885-18.8,8.443,5.156s16.209,31.4,16.209,31.4" transform="matrix(0.995, -0.105, 0.105, 0.995, 0, 2.577)" fill="#a79a9a" stroke="#594949" stroke-width="3"/>
      </g>
      <g id="Face" transform="translate(0 69.949) rotate(-9)">
        <g id="L_Eye" transform="matrix(0.616, 0.788, -0.788, 0.616, 15.316, 0)">
          <line id="Line_2" data-name="Line 2" x2="14.897" y2="2.757" transform="translate(0 0)" fill="none" stroke="#594949" stroke-linecap="round" stroke-width="3"/>
          <line id="Line_34" data-name="Line 34" x2="8.464" y2="1.338" transform="translate(2.241 6.708)" fill="none" stroke="#594949" stroke-linecap="round" stroke-width="3"/>
        </g>
        <g id="R_Eye" transform="matrix(0.588, 0.809, -0.809, 0.588, 31.781, 26.677)">
          <line id="Line_3" data-name="Line 3" x1="15.246" y2="2.405" transform="translate(0 0)" fill="none" stroke="#594949" stroke-linecap="round" stroke-width="3"/>
          <line id="Line_35" data-name="Line 35" x1="8.702" y2="1.415" transform="translate(5.146 6.498)" fill="none" stroke="#594949" stroke-linecap="round" stroke-width="3"/>
        </g>
        <g id="Mouth_Nose" data-name="Mouth/Nose" transform="matrix(0.53, 0.848, -0.848, 0.53, 7.935, 33.753)">
          <path id="Path_10" data-name="Path 10" d="M0,0V8.042" transform="translate(3.81 0.952)" fill="none" stroke="#594949" stroke-width="3"/>
          <path id="Path_11" data-name="Path 11" d="M6.553,0H0" transform="translate(0 9.357)" fill="none" stroke="#594949" stroke-linecap="round" stroke-width="3"/>
          <path id="Path_9" data-name="Path 9" d="M0,3.144H3.739L1.809,0Z" transform="translate(5.667 3.144) rotate(180)" fill="none" stroke="#594949" stroke-linecap="round" stroke-linejoin="round" stroke-width="3"/>
        </g>
      </g>
      <g id="L_Ear-2" data-name="L_Ear" transform="matrix(0.438, 0.899, -0.899, 0.438, 96.996, 47.565)">
        <path id="Path_6-2" data-name="Path 6" d="M.171,0S-2.918,52.726,17.179,32.973,34.541,7.611,34.541,7.611" transform="translate(41.166 36.714) rotate(169)" fill="#a79a9a" stroke="#594949" stroke-width="3"/>
        <path id="Path_31" data-name="Path 31" d="M.113,0S-1.928,34.84,11.351,21.788,22.824,5.029,22.824,5.029" transform="translate(35.598 31.23) rotate(169)" fill="#a79a9a" stroke="#594949" stroke-width="3"/>
      </g>
    </g>
    <path id="Path_32" data-name="Path 32" d="M1383.244-2165.524s-4.783,19.163-13.236,21.224c-7.042,1.717-48.26-15.216-74.853-21.224-11.038-2.472-11.3-1.957-14.605-1.6-19.919,6.017-14.459,38.323,3.423,32.634,28.693,10.282,85.366,29.278,96.3,27.482s47.6-46.864,47.6-46.864" transform="translate(-824.53 2381.814)" fill="#a79a9a" stroke="#594949" stroke-linecap="round" stroke-width="3"/>
  </g>
</svg>
